<svg width="430" height="97" viewBox="0 0 430 97" fill="none" xmlns="http://www.w3.org/2000/svg">
<mask id="path-1-outside-1_12_2" maskUnits="userSpaceOnUse" x="-0.642334" y="-0.909088" width="430" height="98" fill="black">
<rect fill="white" x="-0.642334" y="-0.909088" width="430" height="98"/>
<path d="M22.494 94.0909H1.40312L33.5395 1H58.9031L90.994 94.0909H69.9031L46.5849 22.2727H45.8577L22.494 94.0909ZM21.1758 57.5H70.994V72.8636H21.1758V57.5ZM105.335 94.0909L143.926 17.7273V17.0909H98.9713V1H164.289V17.3182L125.653 94.0909H105.335Z"/>
<path d="M177.505 6.27273V1H242.733V6.27273H212.96V94.0909H207.278V6.27273H177.505ZM277.312 95.5455C271.555 95.5455 266.433 94 261.949 90.9091C257.464 87.7879 253.933 83.5 251.358 78.0455C248.782 72.5909 247.494 66.3788 247.494 59.4091C247.494 52.4091 248.782 46.197 251.358 40.7727C253.933 35.3182 257.464 31.0303 261.949 27.9091C266.433 24.7879 271.555 23.2273 277.312 23.2273C283.07 23.2273 288.191 24.7879 292.676 27.9091C297.161 31.0303 300.691 35.3182 303.267 40.7727C305.843 46.2273 307.13 52.4394 307.13 59.4091C307.13 66.3788 305.843 72.5909 303.267 78.0455C300.691 83.5 297.161 87.7879 292.676 90.9091C288.191 94 283.07 95.5455 277.312 95.5455ZM277.312 90.4091C282.191 90.4091 286.449 89.0303 290.085 86.2727C293.752 83.5152 296.585 79.7879 298.585 75.0909C300.615 70.3939 301.63 65.1667 301.63 59.4091C301.63 53.6515 300.615 48.4394 298.585 43.7727C296.555 39.0758 293.721 35.3485 290.085 32.5909C286.449 29.803 282.191 28.4091 277.312 28.4091C272.433 28.4091 268.176 29.803 264.539 32.5909C260.903 35.3485 258.07 39.0758 256.039 43.7727C254.009 48.4394 252.994 53.6515 252.994 59.4091C252.994 65.1667 253.994 70.3939 255.994 75.0909C258.024 79.7879 260.858 83.5152 264.494 86.2727C268.161 89.0303 272.433 90.4091 277.312 90.4091ZM370.96 69.3182V24.2727H376.505V94.0909H370.96V82.7727H370.505C368.869 86.3788 366.218 89.3182 362.551 91.5909C358.914 93.8636 354.611 95 349.642 95C345.066 95 341.021 94 337.505 92C333.99 90 331.233 87.1667 329.233 83.5C327.233 79.803 326.233 75.4091 326.233 70.3182V24.2727H331.778V70.0909C331.778 75.9091 333.536 80.6212 337.051 84.2273C340.596 87.803 345.172 89.5909 350.778 89.5909C354.414 89.5909 357.763 88.7727 360.824 87.1364C363.884 85.5 366.339 83.1667 368.187 80.1364C370.036 77.0758 370.96 73.4697 370.96 69.3182ZM399.483 94.0909V24.2727H404.892V35.1818H405.392C406.907 31.6061 409.468 28.7424 413.074 26.5909C416.68 24.4091 420.786 23.3182 425.392 23.3182C425.877 23.3182 426.361 23.3182 426.846 23.3182C427.331 23.3182 427.786 23.3333 428.21 23.3636V28.9545C427.846 28.9242 427.407 28.8788 426.892 28.8182C426.407 28.7273 425.801 28.6818 425.074 28.6818C421.195 28.6818 417.74 29.5152 414.71 31.1818C411.71 32.8485 409.346 35.1515 407.619 38.0909C405.892 41 405.028 44.3333 405.028 48.0909V94.0909H399.483Z"/>
</mask>
<path d="M22.494 94.0909H1.40312L33.5395 1H58.9031L90.994 94.0909H69.9031L46.5849 22.2727H45.8577L22.494 94.0909ZM21.1758 57.5H70.994V72.8636H21.1758V57.5ZM105.335 94.0909L143.926 17.7273V17.0909H98.9713V1H164.289V17.3182L125.653 94.0909H105.335Z" fill="url(#paint0_linear_12_2)"/>
<path d="M177.505 6.27273V1H242.733V6.27273H212.96V94.0909H207.278V6.27273H177.505ZM277.312 95.5455C271.555 95.5455 266.433 94 261.949 90.9091C257.464 87.7879 253.933 83.5 251.358 78.0455C248.782 72.5909 247.494 66.3788 247.494 59.4091C247.494 52.4091 248.782 46.197 251.358 40.7727C253.933 35.3182 257.464 31.0303 261.949 27.9091C266.433 24.7879 271.555 23.2273 277.312 23.2273C283.07 23.2273 288.191 24.7879 292.676 27.9091C297.161 31.0303 300.691 35.3182 303.267 40.7727C305.843 46.2273 307.13 52.4394 307.13 59.4091C307.13 66.3788 305.843 72.5909 303.267 78.0455C300.691 83.5 297.161 87.7879 292.676 90.9091C288.191 94 283.07 95.5455 277.312 95.5455ZM277.312 90.4091C282.191 90.4091 286.449 89.0303 290.085 86.2727C293.752 83.5152 296.585 79.7879 298.585 75.0909C300.615 70.3939 301.63 65.1667 301.63 59.4091C301.63 53.6515 300.615 48.4394 298.585 43.7727C296.555 39.0758 293.721 35.3485 290.085 32.5909C286.449 29.803 282.191 28.4091 277.312 28.4091C272.433 28.4091 268.176 29.803 264.539 32.5909C260.903 35.3485 258.07 39.0758 256.039 43.7727C254.009 48.4394 252.994 53.6515 252.994 59.4091C252.994 65.1667 253.994 70.3939 255.994 75.0909C258.024 79.7879 260.858 83.5152 264.494 86.2727C268.161 89.0303 272.433 90.4091 277.312 90.4091ZM370.96 69.3182V24.2727H376.505V94.0909H370.96V82.7727H370.505C368.869 86.3788 366.218 89.3182 362.551 91.5909C358.914 93.8636 354.611 95 349.642 95C345.066 95 341.021 94 337.505 92C333.99 90 331.233 87.1667 329.233 83.5C327.233 79.803 326.233 75.4091 326.233 70.3182V24.2727H331.778V70.0909C331.778 75.9091 333.536 80.6212 337.051 84.2273C340.596 87.803 345.172 89.5909 350.778 89.5909C354.414 89.5909 357.763 88.7727 360.824 87.1364C363.884 85.5 366.339 83.1667 368.187 80.1364C370.036 77.0758 370.96 73.4697 370.96 69.3182ZM399.483 94.0909V24.2727H404.892V35.1818H405.392C406.907 31.6061 409.468 28.7424 413.074 26.5909C416.68 24.4091 420.786 23.3182 425.392 23.3182C425.877 23.3182 426.361 23.3182 426.846 23.3182C427.331 23.3182 427.786 23.3333 428.21 23.3636V28.9545C427.846 28.9242 427.407 28.8788 426.892 28.8182C426.407 28.7273 425.801 28.6818 425.074 28.6818C421.195 28.6818 417.74 29.5152 414.71 31.1818C411.71 32.8485 409.346 35.1515 407.619 38.0909C405.892 41 405.028 44.3333 405.028 48.0909V94.0909H399.483Z" fill="#001A33"/>
<path d="M22.494 94.0909V95.0909H23.2203L23.445 94.4003L22.494 94.0909ZM1.40312 94.0909L0.457861 93.7646L-3.93391e-06 95.0909H1.40312V94.0909ZM33.5395 1V0H32.8268L32.5942 0.673683L33.5395 1ZM58.9031 1L59.8485 0.674095L59.6161 0H58.9031V1ZM90.994 94.0909V95.0909H92.3965L91.9394 93.765L90.994 94.0909ZM69.9031 94.0909L68.952 94.3997L69.1764 95.0909H69.9031V94.0909ZM46.5849 22.2727L47.5361 21.9639L47.3116 21.2727H46.5849V22.2727ZM45.8577 22.2727V21.2727H45.1314L44.9067 21.9634L45.8577 22.2727ZM21.1758 57.5V56.5H20.1758V57.5H21.1758ZM70.994 57.5H71.994V56.5H70.994V57.5ZM70.994 72.8636V73.8636H71.994V72.8636H70.994ZM21.1758 72.8636H20.1758V73.8636H21.1758V72.8636ZM22.494 94.0909V93.0909H1.40312V94.0909V95.0909H22.494V94.0909ZM1.40312 94.0909L2.34838 94.4172L34.4847 1.32632L33.5395 1L32.5942 0.673683L0.457861 93.7646L1.40312 94.0909ZM33.5395 1V2H58.9031V1V0H33.5395V1ZM58.9031 1L57.9577 1.3259L90.0486 94.4168L90.994 94.0909L91.9394 93.765L59.8485 0.674095L58.9031 1ZM90.994 94.0909V93.0909H69.9031V94.0909V95.0909H90.994V94.0909ZM69.9031 94.0909L70.8542 93.7821L47.5361 21.9639L46.5849 22.2727L45.6338 22.5815L68.952 94.3997L69.9031 94.0909ZM46.5849 22.2727V21.2727H45.8577V22.2727V23.2727H46.5849V22.2727ZM45.8577 22.2727L44.9067 21.9634L21.5431 93.7816L22.494 94.0909L23.445 94.4003L46.8086 22.5821L45.8577 22.2727ZM21.1758 57.5V58.5H70.994V57.5V56.5H21.1758V57.5ZM70.994 57.5H69.994V72.8636H70.994H71.994V57.5H70.994ZM70.994 72.8636V71.8636H21.1758V72.8636V73.8636H70.994V72.8636ZM21.1758 72.8636H22.1758V57.5H21.1758H20.1758V72.8636H21.1758ZM105.335 94.0909L104.442 93.6399L103.709 95.0909H105.335V94.0909ZM143.926 17.7273L144.818 18.1783L144.926 17.9656V17.7273H143.926ZM143.926 17.0909H144.926V16.0909H143.926V17.0909ZM98.9713 17.0909H97.9713V18.0909H98.9713V17.0909ZM98.9713 1V0H97.9713V1H98.9713ZM164.289 1H165.289V0H164.289V1ZM164.289 17.3182L165.183 17.7677L165.289 17.5556V17.3182H164.289ZM125.653 94.0909V95.0909H126.269L126.546 94.5405L125.653 94.0909ZM105.335 94.0909L106.227 94.5419L144.818 18.1783L143.926 17.7273L143.033 17.2762L104.442 93.6399L105.335 94.0909ZM143.926 17.7273H144.926V17.0909H143.926H142.926V17.7273H143.926ZM143.926 17.0909V16.0909H98.9713V17.0909V18.0909H143.926V17.0909ZM98.9713 17.0909H99.9713V1H98.9713H97.9713V17.0909H98.9713ZM98.9713 1V2H164.289V1V0H98.9713V1ZM164.289 1H163.289V17.3182H164.289H165.289V1H164.289ZM164.289 17.3182L163.396 16.8686L124.76 93.6414L125.653 94.0909L126.546 94.5405L165.183 17.7677L164.289 17.3182ZM125.653 94.0909V93.0909H105.335V94.0909V95.0909H125.653V94.0909ZM177.505 6.27273H176.505V7.27273H177.505V6.27273ZM177.505 1V0H176.505V1H177.505ZM242.733 1H243.733V0H242.733V1ZM242.733 6.27273V7.27273H243.733V6.27273H242.733ZM212.96 6.27273V5.27273H211.96V6.27273H212.96ZM212.96 94.0909V95.0909H213.96V94.0909H212.96ZM207.278 94.0909H206.278V95.0909H207.278V94.0909ZM207.278 6.27273H208.278V5.27273H207.278V6.27273ZM177.505 6.27273H178.505V1H177.505H176.505V6.27273H177.505ZM177.505 1V2H242.733V1V0H177.505V1ZM242.733 1H241.733V6.27273H242.733H243.733V1H242.733ZM242.733 6.27273V5.27273H212.96V6.27273V7.27273H242.733V6.27273ZM212.96 6.27273H211.96V94.0909H212.96H213.96V6.27273H212.96ZM212.96 94.0909V93.0909H207.278V94.0909V95.0909H212.96V94.0909ZM207.278 94.0909H208.278V6.27273H207.278H206.278V94.0909H207.278ZM207.278 6.27273V5.27273H177.505V6.27273V7.27273H207.278V6.27273ZM261.949 90.9091L261.377 91.7299L261.381 91.7325L261.949 90.9091ZM251.358 78.0455L250.453 78.4725V78.4725L251.358 78.0455ZM251.358 40.7727L252.261 41.2017L252.262 41.1997L251.358 40.7727ZM261.949 27.9091L261.377 27.0883V27.0883L261.949 27.9091ZM292.676 27.9091L293.247 27.0883V27.0883L292.676 27.9091ZM303.267 40.7727L304.171 40.3457V40.3457L303.267 40.7727ZM303.267 78.0455L302.363 77.6185V77.6185L303.267 78.0455ZM292.676 90.9091L293.243 91.7325L293.247 91.7299L292.676 90.9091ZM290.085 86.2727L289.484 85.4735L289.481 85.4759L290.085 86.2727ZM298.585 75.0909L297.667 74.6941L297.665 74.6991L298.585 75.0909ZM298.585 43.7727L297.667 44.1695L297.668 44.1717L298.585 43.7727ZM290.085 32.5909L289.477 33.3845L289.481 33.3877L290.085 32.5909ZM264.539 32.5909L265.144 33.3877L265.148 33.3845L264.539 32.5909ZM256.039 43.7727L256.956 44.1717L256.957 44.1695L256.039 43.7727ZM255.994 75.0909L255.074 75.4827L255.076 75.4877L255.994 75.0909ZM264.494 86.2727L263.89 87.0695L263.893 87.0719L264.494 86.2727ZM277.312 95.5455V94.5455C271.745 94.5455 266.824 93.0548 262.516 90.0857L261.949 90.9091L261.381 91.7325C266.043 94.9452 271.364 96.5455 277.312 96.5455V95.5455ZM261.949 90.9091L262.52 90.0883C258.193 87.0771 254.771 82.9317 252.262 77.6185L251.358 78.0455L250.453 78.4725C253.096 84.0683 256.734 88.4986 261.377 91.7299L261.949 90.9091ZM251.358 78.0455L252.262 77.6185C249.758 72.3167 248.494 66.254 248.494 59.4091H247.494H246.494C246.494 66.5036 247.806 72.8651 250.453 78.4725L251.358 78.0455ZM247.494 59.4091H248.494C248.494 52.533 249.759 46.4714 252.261 41.2017L251.358 40.7727L250.454 40.3438C247.805 45.9225 246.494 52.2852 246.494 59.4091H247.494ZM251.358 40.7727L252.262 41.1997C254.771 35.8864 258.193 31.7411 262.52 28.7299L261.949 27.9091L261.377 27.0883C256.734 30.3195 253.096 34.7499 250.453 40.3457L251.358 40.7727ZM261.949 27.9091L262.52 28.7299C266.828 25.7318 271.747 24.2273 277.312 24.2273V23.2273V22.2273C271.362 22.2273 266.039 23.8439 261.377 27.0883L261.949 27.9091ZM277.312 23.2273V24.2273C282.877 24.2273 287.797 25.7318 292.105 28.7299L292.676 27.9091L293.247 27.0883C288.585 23.8439 283.262 22.2273 277.312 22.2273V23.2273ZM292.676 27.9091L292.105 28.7299C296.431 31.7411 299.853 35.8864 302.363 41.1997L303.267 40.7727L304.171 40.3457C301.529 34.7499 297.89 30.3195 293.247 27.0883L292.676 27.9091ZM303.267 40.7727L302.363 41.1997C304.866 46.5015 306.13 52.5642 306.13 59.4091H307.13H308.13C308.13 52.3146 306.819 45.953 304.171 40.3457L303.267 40.7727ZM307.13 59.4091H306.13C306.13 66.254 304.866 72.3167 302.363 77.6185L303.267 78.0455L304.171 78.4725C306.819 72.8651 308.13 66.5036 308.13 59.4091H307.13ZM303.267 78.0455L302.363 77.6185C299.853 82.9317 296.431 87.0771 292.105 90.0883L292.676 90.9091L293.247 91.7299C297.89 88.4986 301.529 84.0683 304.171 78.4725L303.267 78.0455ZM292.676 90.9091L292.108 90.0857C287.8 93.0548 282.879 94.5455 277.312 94.5455V95.5455V96.5455C283.26 96.5455 288.582 94.9452 293.243 91.7325L292.676 90.9091ZM277.312 90.4091V91.4091C282.393 91.4091 286.867 89.9683 290.689 87.0695L290.085 86.2727L289.481 85.4759C286.031 88.0923 281.989 89.4091 277.312 89.4091V90.4091ZM290.085 86.2727L290.686 87.0719C294.508 84.1973 297.444 80.3225 299.505 75.4827L298.585 75.0909L297.665 74.6991C295.726 79.2533 292.995 82.833 289.484 85.4735L290.085 86.2727ZM298.585 75.0909L299.503 75.4877C301.594 70.6507 302.63 65.2861 302.63 59.4091H301.63H300.63C300.63 65.0473 299.637 70.1372 297.667 74.6941L298.585 75.0909ZM301.63 59.4091H302.63C302.63 53.5322 301.594 48.1818 299.502 43.3738L298.585 43.7727L297.668 44.1717C299.637 48.6969 300.63 53.7708 300.63 59.4091H301.63ZM298.585 43.7727L299.503 43.3759C297.413 38.5404 294.479 34.6679 290.689 31.7941L290.085 32.5909L289.481 33.3877C292.964 36.029 295.697 39.6111 297.667 44.1695L298.585 43.7727ZM290.085 32.5909L290.693 31.7973C286.871 28.8666 282.396 27.4091 277.312 27.4091V28.4091V29.4091C281.986 29.4091 286.026 30.7395 289.477 33.3845L290.085 32.5909ZM277.312 28.4091V27.4091C272.229 27.4091 267.754 28.8666 263.931 31.7973L264.539 32.5909L265.148 33.3845C268.598 30.7395 272.638 29.4091 277.312 29.4091V28.4091ZM264.539 32.5909L263.935 31.7941C260.146 34.6679 257.212 38.5404 255.122 43.3759L256.039 43.7727L256.957 44.1695C258.928 39.6111 261.661 36.029 265.144 33.3877L264.539 32.5909ZM256.039 43.7727L255.122 43.3738C253.031 48.1818 251.994 53.5322 251.994 59.4091H252.994H253.994C253.994 53.7708 254.988 48.6969 256.956 44.1717L256.039 43.7727ZM252.994 59.4091H251.994C251.994 65.2841 253.015 70.6469 255.074 75.4827L255.994 75.0909L256.914 74.6991C254.973 70.1409 253.994 65.0492 253.994 59.4091H252.994ZM255.994 75.0909L255.076 75.4877C257.166 80.3232 260.1 84.1957 263.89 87.0695L264.494 86.2727L265.098 85.4759C261.615 82.8346 258.882 79.2525 256.912 74.6941L255.994 75.0909ZM264.494 86.2727L263.893 87.0719C267.744 89.9684 272.231 91.4091 277.312 91.4091V90.4091V89.4091C272.636 89.4091 268.577 88.0922 265.095 85.4735L264.494 86.2727ZM370.96 24.2727V23.2727H369.96V24.2727H370.96ZM376.505 24.2727H377.505V23.2727H376.505V24.2727ZM376.505 94.0909V95.0909H377.505V94.0909H376.505ZM370.96 94.0909H369.96V95.0909H370.96V94.0909ZM370.96 82.7727H371.96V81.7727H370.96V82.7727ZM370.505 82.7727V81.7727H369.861L369.595 82.3595L370.505 82.7727ZM362.551 91.5909L362.024 90.7409L362.021 90.7429L362.551 91.5909ZM337.505 92L338 91.1308V91.1308L337.505 92ZM329.233 83.5L328.353 83.9758L328.355 83.9789L329.233 83.5ZM326.233 24.2727V23.2727H325.233V24.2727H326.233ZM331.778 24.2727H332.778V23.2727H331.778V24.2727ZM337.051 84.2273L336.335 84.9253L336.341 84.9314L337.051 84.2273ZM360.824 87.1364L361.295 88.0182V88.0182L360.824 87.1364ZM368.187 80.1364L369.041 80.6571L369.043 80.6534L368.187 80.1364ZM370.96 69.3182H371.96V24.2727H370.96H369.96V69.3182H370.96ZM370.96 24.2727V25.2727H376.505V24.2727V23.2727H370.96V24.2727ZM376.505 24.2727H375.505V94.0909H376.505H377.505V24.2727H376.505ZM376.505 94.0909V93.0909H370.96V94.0909V95.0909H376.505V94.0909ZM370.96 94.0909H371.96V82.7727H370.96H369.96V94.0909H370.96ZM370.96 82.7727V81.7727H370.505V82.7727V83.7727H370.96V82.7727ZM370.505 82.7727L369.595 82.3595C368.048 85.7691 365.538 88.5628 362.024 90.7409L362.551 91.5909L363.078 92.4409C366.897 90.0735 369.69 86.9885 371.416 83.186L370.505 82.7727ZM362.551 91.5909L362.021 90.7429C358.567 92.9014 354.454 94 349.642 94V95V96C354.769 96 359.262 94.8259 363.081 92.4389L362.551 91.5909ZM349.642 95V94C345.216 94 341.345 93.0343 338 91.1308L337.505 92L337.011 92.8692C340.696 94.9657 344.916 96 349.642 96V95ZM337.505 92L338 91.1308C334.652 89.2259 332.025 86.5302 330.111 83.0211L329.233 83.5L328.355 83.9789C330.441 87.8031 333.329 90.7741 337.011 92.8692L337.505 92ZM329.233 83.5L330.112 83.0242C328.206 79.5012 327.233 75.2778 327.233 70.3182H326.233H325.233C325.233 75.5404 326.259 80.1049 328.353 83.9758L329.233 83.5ZM326.233 70.3182H327.233V24.2727H326.233H325.233V70.3182H326.233ZM326.233 24.2727V25.2727H331.778V24.2727V23.2727H326.233V24.2727ZM331.778 24.2727H330.778V70.0909H331.778H332.778V24.2727H331.778ZM331.778 70.0909H330.778C330.778 76.1262 332.609 81.1034 336.335 84.9253L337.051 84.2273L337.767 83.5293C334.462 80.1391 332.778 75.692 332.778 70.0909H331.778ZM337.051 84.2273L336.341 84.9314C340.096 88.7188 344.939 90.5909 350.778 90.5909V89.5909V88.5909C345.406 88.5909 341.097 86.8873 337.761 83.5232L337.051 84.2273ZM350.778 89.5909V90.5909C354.571 90.5909 358.082 89.7359 361.295 88.0182L360.824 87.1364L360.352 86.2545C357.444 87.8096 354.258 88.5909 350.778 88.5909V89.5909ZM360.824 87.1364L361.295 88.0182C364.517 86.2958 367.102 83.8361 369.041 80.6571L368.187 80.1364L367.333 79.6156C365.576 82.4972 363.252 84.7042 360.352 86.2545L360.824 87.1364ZM368.187 80.1364L369.043 80.6534C371 77.4131 371.96 73.6221 371.96 69.3182H370.96H369.96C369.96 73.3173 369.071 76.7384 367.331 79.6194L368.187 80.1364ZM399.483 94.0909H398.483V95.0909H399.483V94.0909ZM399.483 24.2727V23.2727H398.483V24.2727H399.483ZM404.892 24.2727H405.892V23.2727H404.892V24.2727ZM404.892 35.1818H403.892V36.1818H404.892V35.1818ZM405.392 35.1818V36.1818H406.054L406.312 35.572L405.392 35.1818ZM413.074 26.5909L413.586 27.4497L413.591 27.4465L413.074 26.5909ZM428.21 23.3636H429.21V22.4325L428.281 22.3662L428.21 23.3636ZM428.21 28.9545L428.127 29.9511L429.21 30.0413V28.9545H428.21ZM426.892 28.8182L426.707 29.8011L426.741 29.8074L426.775 29.8113L426.892 28.8182ZM414.71 31.1818L414.228 30.3056L414.224 30.3077L414.71 31.1818ZM407.619 38.0909L408.479 38.6015L408.481 38.5975L407.619 38.0909ZM405.028 94.0909V95.0909H406.028V94.0909H405.028ZM399.483 94.0909H400.483V24.2727H399.483H398.483V94.0909H399.483ZM399.483 24.2727V25.2727H404.892V24.2727V23.2727H399.483V24.2727ZM404.892 24.2727H403.892V35.1818H404.892H405.892V24.2727H404.892ZM404.892 35.1818V36.1818H405.392V35.1818V34.1818H404.892V35.1818ZM405.392 35.1818L406.312 35.572C407.738 32.208 410.147 29.5017 413.586 27.4497L413.074 26.5909L412.561 25.7321C408.788 27.9832 406.076 31.0041 404.471 34.7917L405.392 35.1818ZM413.074 26.5909L413.591 27.4465C417.027 25.3678 420.951 24.3182 425.392 24.3182V23.3182V22.3182C420.621 22.3182 416.332 23.4504 412.556 25.7353L413.074 26.5909ZM425.392 23.3182V24.3182C425.393 24.3182 425.394 24.3182 425.395 24.3182C425.396 24.3182 425.396 24.3182 425.397 24.3182C425.398 24.3182 425.399 24.3182 425.4 24.3182C425.401 24.3182 425.402 24.3182 425.403 24.3182C425.404 24.3182 425.405 24.3182 425.406 24.3182C425.407 24.3182 425.408 24.3182 425.409 24.3182C425.41 24.3182 425.411 24.3182 425.412 24.3182C425.413 24.3182 425.414 24.3182 425.414 24.3182C425.415 24.3182 425.416 24.3182 425.417 24.3182C425.418 24.3182 425.419 24.3182 425.42 24.3182C425.421 24.3182 425.422 24.3182 425.423 24.3182C425.424 24.3182 425.425 24.3182 425.426 24.3182C425.427 24.3182 425.428 24.3182 425.429 24.3182C425.43 24.3182 425.431 24.3182 425.432 24.3182C425.432 24.3182 425.433 24.3182 425.434 24.3182C425.435 24.3182 425.436 24.3182 425.437 24.3182C425.438 24.3182 425.439 24.3182 425.44 24.3182C425.441 24.3182 425.442 24.3182 425.443 24.3182C425.444 24.3182 425.445 24.3182 425.446 24.3182C425.447 24.3182 425.448 24.3182 425.449 24.3182C425.45 24.3182 425.45 24.3182 425.451 24.3182C425.452 24.3182 425.453 24.3182 425.454 24.3182C425.455 24.3182 425.456 24.3182 425.457 24.3182C425.458 24.3182 425.459 24.3182 425.46 24.3182C425.461 24.3182 425.462 24.3182 425.463 24.3182C425.464 24.3182 425.465 24.3182 425.466 24.3182C425.467 24.3182 425.468 24.3182 425.468 24.3182C425.469 24.3182 425.47 24.3182 425.471 24.3182C425.472 24.3182 425.473 24.3182 425.474 24.3182C425.475 24.3182 425.476 24.3182 425.477 24.3182C425.478 24.3182 425.479 24.3182 425.48 24.3182C425.481 24.3182 425.482 24.3182 425.483 24.3182C425.484 24.3182 425.485 24.3182 425.486 24.3182C425.486 24.3182 425.487 24.3182 425.488 24.3182C425.489 24.3182 425.49 24.3182 425.491 24.3182C425.492 24.3182 425.493 24.3182 425.494 24.3182C425.495 24.3182 425.496 24.3182 425.497 24.3182C425.498 24.3182 425.499 24.3182 425.5 24.3182C425.501 24.3182 425.502 24.3182 425.503 24.3182C425.504 24.3182 425.504 24.3182 425.505 24.3182C425.506 24.3182 425.507 24.3182 425.508 24.3182C425.509 24.3182 425.51 24.3182 425.511 24.3182C425.512 24.3182 425.513 24.3182 425.514 24.3182C425.515 24.3182 425.516 24.3182 425.517 24.3182C425.518 24.3182 425.519 24.3182 425.52 24.3182C425.521 24.3182 425.521 24.3182 425.522 24.3182C425.523 24.3182 425.524 24.3182 425.525 24.3182C425.526 24.3182 425.527 24.3182 425.528 24.3182C425.529 24.3182 425.53 24.3182 425.531 24.3182C425.532 24.3182 425.533 24.3182 425.534 24.3182C425.535 24.3182 425.536 24.3182 425.537 24.3182C425.538 24.3182 425.539 24.3182 425.539 24.3182C425.54 24.3182 425.541 24.3182 425.542 24.3182C425.543 24.3182 425.544 24.3182 425.545 24.3182C425.546 24.3182 425.547 24.3182 425.548 24.3182C425.549 24.3182 425.55 24.3182 425.551 24.3182C425.552 24.3182 425.553 24.3182 425.554 24.3182C425.555 24.3182 425.556 24.3182 425.557 24.3182C425.557 24.3182 425.558 24.3182 425.559 24.3182C425.56 24.3182 425.561 24.3182 425.562 24.3182C425.563 24.3182 425.564 24.3182 425.565 24.3182C425.566 24.3182 425.567 24.3182 425.568 24.3182C425.569 24.3182 425.57 24.3182 425.571 24.3182C425.572 24.3182 425.573 24.3182 425.574 24.3182C425.575 24.3182 425.575 24.3182 425.576 24.3182C425.577 24.3182 425.578 24.3182 425.579 24.3182C425.58 24.3182 425.581 24.3182 425.582 24.3182C425.583 24.3182 425.584 24.3182 425.585 24.3182C425.586 24.3182 425.587 24.3182 425.588 24.3182C425.589 24.3182 425.59 24.3182 425.591 24.3182C425.592 24.3182 425.593 24.3182 425.593 24.3182C425.594 24.3182 425.595 24.3182 425.596 24.3182C425.597 24.3182 425.598 24.3182 425.599 24.3182C425.6 24.3182 425.601 24.3182 425.602 24.3182C425.603 24.3182 425.604 24.3182 425.605 24.3182C425.606 24.3182 425.607 24.3182 425.608 24.3182C425.609 24.3182 425.61 24.3182 425.611 24.3182C425.611 24.3182 425.612 24.3182 425.613 24.3182C425.614 24.3182 425.615 24.3182 425.616 24.3182C425.617 24.3182 425.618 24.3182 425.619 24.3182C425.62 24.3182 425.621 24.3182 425.622 24.3182C425.623 24.3182 425.624 24.3182 425.625 24.3182C425.626 24.3182 425.627 24.3182 425.628 24.3182C425.629 24.3182 425.629 24.3182 425.63 24.3182C425.631 24.3182 425.632 24.3182 425.633 24.3182C425.634 24.3182 425.635 24.3182 425.636 24.3182C425.637 24.3182 425.638 24.3182 425.639 24.3182C425.64 24.3182 425.641 24.3182 425.642 24.3182C425.643 24.3182 425.644 24.3182 425.645 24.3182C425.646 24.3182 425.646 24.3182 425.647 24.3182C425.648 24.3182 425.649 24.3182 425.65 24.3182C425.651 24.3182 425.652 24.3182 425.653 24.3182C425.654 24.3182 425.655 24.3182 425.656 24.3182C425.657 24.3182 425.658 24.3182 425.659 24.3182C425.66 24.3182 425.661 24.3182 425.662 24.3182C425.663 24.3182 425.664 24.3182 425.664 24.3182C425.665 24.3182 425.666 24.3182 425.667 24.3182C425.668 24.3182 425.669 24.3182 425.67 24.3182C425.671 24.3182 425.672 24.3182 425.673 24.3182C425.674 24.3182 425.675 24.3182 425.676 24.3182C425.677 24.3182 425.678 24.3182 425.679 24.3182C425.68 24.3182 425.681 24.3182 425.682 24.3182C425.682 24.3182 425.683 24.3182 425.684 24.3182C425.685 24.3182 425.686 24.3182 425.687 24.3182C425.688 24.3182 425.689 24.3182 425.69 24.3182C425.691 24.3182 425.692 24.3182 425.693 24.3182C425.694 24.3182 425.695 24.3182 425.696 24.3182C425.697 24.3182 425.698 24.3182 425.699 24.3182C425.7 24.3182 425.7 24.3182 425.701 24.3182C425.702 24.3182 425.703 24.3182 425.704 24.3182C425.705 24.3182 425.706 24.3182 425.707 24.3182C425.708 24.3182 425.709 24.3182 425.71 24.3182C425.711 24.3182 425.712 24.3182 425.713 24.3182C425.714 24.3182 425.715 24.3182 425.716 24.3182C425.717 24.3182 425.718 24.3182 425.718 24.3182C425.719 24.3182 425.72 24.3182 425.721 24.3182C425.722 24.3182 425.723 24.3182 425.724 24.3182C425.725 24.3182 425.726 24.3182 425.727 24.3182C425.728 24.3182 425.729 24.3182 425.73 24.3182C425.731 24.3182 425.732 24.3182 425.733 24.3182C425.734 24.3182 425.735 24.3182 425.736 24.3182C425.736 24.3182 425.737 24.3182 425.738 24.3182C425.739 24.3182 425.74 24.3182 425.741 24.3182C425.742 24.3182 425.743 24.3182 425.744 24.3182C425.745 24.3182 425.746 24.3182 425.747 24.3182C425.748 24.3182 425.749 24.3182 425.75 24.3182C425.751 24.3182 425.752 24.3182 425.753 24.3182C425.754 24.3182 425.754 24.3182 425.755 24.3182C425.756 24.3182 425.757 24.3182 425.758 24.3182C425.759 24.3182 425.76 24.3182 425.761 24.3182C425.762 24.3182 425.763 24.3182 425.764 24.3182C425.765 24.3182 425.766 24.3182 425.767 24.3182C425.768 24.3182 425.769 24.3182 425.77 24.3182C425.771 24.3182 425.771 24.3182 425.772 24.3182C425.773 24.3182 425.774 24.3182 425.775 24.3182C425.776 24.3182 425.777 24.3182 425.778 24.3182C425.779 24.3182 425.78 24.3182 425.781 24.3182C425.782 24.3182 425.783 24.3182 425.784 24.3182C425.785 24.3182 425.786 24.3182 425.787 24.3182C425.788 24.3182 425.789 24.3182 425.789 24.3182C425.79 24.3182 425.791 24.3182 425.792 24.3182C425.793 24.3182 425.794 24.3182 425.795 24.3182C425.796 24.3182 425.797 24.3182 425.798 24.3182C425.799 24.3182 425.8 24.3182 425.801 24.3182C425.802 24.3182 425.803 24.3182 425.804 24.3182C425.805 24.3182 425.806 24.3182 425.807 24.3182C425.807 24.3182 425.808 24.3182 425.809 24.3182C425.81 24.3182 425.811 24.3182 425.812 24.3182C425.813 24.3182 425.814 24.3182 425.815 24.3182C425.816 24.3182 425.817 24.3182 425.818 24.3182C425.819 24.3182 425.82 24.3182 425.821 24.3182C425.822 24.3182 425.823 24.3182 425.824 24.3182C425.825 24.3182 425.825 24.3182 425.826 24.3182C425.827 24.3182 425.828 24.3182 425.829 24.3182C425.83 24.3182 425.831 24.3182 425.832 24.3182C425.833 24.3182 425.834 24.3182 425.835 24.3182C425.836 24.3182 425.837 24.3182 425.838 24.3182C425.839 24.3182 425.84 24.3182 425.841 24.3182C425.842 24.3182 425.843 24.3182 425.843 24.3182C425.844 24.3182 425.845 24.3182 425.846 24.3182C425.847 24.3182 425.848 24.3182 425.849 24.3182C425.85 24.3182 425.851 24.3182 425.852 24.3182C425.853 24.3182 425.854 24.3182 425.855 24.3182C425.856 24.3182 425.857 24.3182 425.858 24.3182C425.859 24.3182 425.86 24.3182 425.861 24.3182C425.861 24.3182 425.862 24.3182 425.863 24.3182C425.864 24.3182 425.865 24.3182 425.866 24.3182C425.867 24.3182 425.868 24.3182 425.869 24.3182C425.87 24.3182 425.871 24.3182 425.872 24.3182C425.873 24.3182 425.874 24.3182 425.875 24.3182C425.876 24.3182 425.877 24.3182 425.878 24.3182C425.879 24.3182 425.879 24.3182 425.88 24.3182C425.881 24.3182 425.882 24.3182 425.883 24.3182C425.884 24.3182 425.885 24.3182 425.886 24.3182C425.887 24.3182 425.888 24.3182 425.889 24.3182C425.89 24.3182 425.891 24.3182 425.892 24.3182C425.893 24.3182 425.894 24.3182 425.895 24.3182C425.896 24.3182 425.896 24.3182 425.897 24.3182C425.898 24.3182 425.899 24.3182 425.9 24.3182C425.901 24.3182 425.902 24.3182 425.903 24.3182C425.904 24.3182 425.905 24.3182 425.906 24.3182C425.907 24.3182 425.908 24.3182 425.909 24.3182C425.91 24.3182 425.911 24.3182 425.912 24.3182C425.913 24.3182 425.914 24.3182 425.914 24.3182C425.915 24.3182 425.916 24.3182 425.917 24.3182C425.918 24.3182 425.919 24.3182 425.92 24.3182C425.921 24.3182 425.922 24.3182 425.923 24.3182C425.924 24.3182 425.925 24.3182 425.926 24.3182C425.927 24.3182 425.928 24.3182 425.929 24.3182C425.93 24.3182 425.931 24.3182 425.932 24.3182C425.932 24.3182 425.933 24.3182 425.934 24.3182C425.935 24.3182 425.936 24.3182 425.937 24.3182C425.938 24.3182 425.939 24.3182 425.94 24.3182C425.941 24.3182 425.942 24.3182 425.943 24.3182C425.944 24.3182 425.945 24.3182 425.946 24.3182C425.947 24.3182 425.948 24.3182 425.949 24.3182C425.95 24.3182 425.95 24.3182 425.951 24.3182C425.952 24.3182 425.953 24.3182 425.954 24.3182C425.955 24.3182 425.956 24.3182 425.957 24.3182C425.958 24.3182 425.959 24.3182 425.96 24.3182C425.961 24.3182 425.962 24.3182 425.963 24.3182C425.964 24.3182 425.965 24.3182 425.966 24.3182C425.967 24.3182 425.968 24.3182 425.968 24.3182C425.969 24.3182 425.97 24.3182 425.971 24.3182C425.972 24.3182 425.973 24.3182 425.974 24.3182C425.975 24.3182 425.976 24.3182 425.977 24.3182C425.978 24.3182 425.979 24.3182 425.98 24.3182C425.981 24.3182 425.982 24.3182 425.983 24.3182C425.984 24.3182 425.985 24.3182 425.986 24.3182C425.986 24.3182 425.987 24.3182 425.988 24.3182C425.989 24.3182 425.99 24.3182 425.991 24.3182C425.992 24.3182 425.993 24.3182 425.994 24.3182C425.995 24.3182 425.996 24.3182 425.997 24.3182C425.998 24.3182 425.999 24.3182 426 24.3182C426.001 24.3182 426.002 24.3182 426.003 24.3182C426.004 24.3182 426.004 24.3182 426.005 24.3182C426.006 24.3182 426.007 24.3182 426.008 24.3182C426.009 24.3182 426.01 24.3182 426.011 24.3182C426.012 24.3182 426.013 24.3182 426.014 24.3182C426.015 24.3182 426.016 24.3182 426.017 24.3182C426.018 24.3182 426.019 24.3182 426.02 24.3182C426.021 24.3182 426.021 24.3182 426.022 24.3182C426.023 24.3182 426.024 24.3182 426.025 24.3182C426.026 24.3182 426.027 24.3182 426.028 24.3182C426.029 24.3182 426.03 24.3182 426.031 24.3182C426.032 24.3182 426.033 24.3182 426.034 24.3182C426.035 24.3182 426.036 24.3182 426.037 24.3182C426.038 24.3182 426.039 24.3182 426.039 24.3182C426.04 24.3182 426.041 24.3182 426.042 24.3182C426.043 24.3182 426.044 24.3182 426.045 24.3182C426.046 24.3182 426.047 24.3182 426.048 24.3182C426.049 24.3182 426.05 24.3182 426.051 24.3182C426.052 24.3182 426.053 24.3182 426.054 24.3182C426.055 24.3182 426.056 24.3182 426.057 24.3182C426.057 24.3182 426.058 24.3182 426.059 24.3182C426.06 24.3182 426.061 24.3182 426.062 24.3182C426.063 24.3182 426.064 24.3182 426.065 24.3182C426.066 24.3182 426.067 24.3182 426.068 24.3182C426.069 24.3182 426.07 24.3182 426.071 24.3182C426.072 24.3182 426.073 24.3182 426.074 24.3182C426.075 24.3182 426.075 24.3182 426.076 24.3182C426.077 24.3182 426.078 24.3182 426.079 24.3182C426.08 24.3182 426.081 24.3182 426.082 24.3182C426.083 24.3182 426.084 24.3182 426.085 24.3182C426.086 24.3182 426.087 24.3182 426.088 24.3182C426.089 24.3182 426.09 24.3182 426.091 24.3182C426.092 24.3182 426.093 24.3182 426.093 24.3182C426.094 24.3182 426.095 24.3182 426.096 24.3182C426.097 24.3182 426.098 24.3182 426.099 24.3182C426.1 24.3182 426.101 24.3182 426.102 24.3182C426.103 24.3182 426.104 24.3182 426.105 24.3182C426.106 24.3182 426.107 24.3182 426.108 24.3182C426.109 24.3182 426.11 24.3182 426.111 24.3182C426.111 24.3182 426.112 24.3182 426.113 24.3182C426.114 24.3182 426.115 24.3182 426.116 24.3182C426.117 24.3182 426.118 24.3182 426.119 24.3182C426.12 24.3182 426.121 24.3182 426.122 24.3182C426.123 24.3182 426.124 24.3182 426.125 24.3182C426.126 24.3182 426.127 24.3182 426.128 24.3182C426.129 24.3182 426.129 24.3182 426.13 24.3182C426.131 24.3182 426.132 24.3182 426.133 24.3182C426.134 24.3182 426.135 24.3182 426.136 24.3182C426.137 24.3182 426.138 24.3182 426.139 24.3182C426.14 24.3182 426.141 24.3182 426.142 24.3182C426.143 24.3182 426.144 24.3182 426.145 24.3182C426.146 24.3182 426.146 24.3182 426.147 24.3182C426.148 24.3182 426.149 24.3182 426.15 24.3182C426.151 24.3182 426.152 24.3182 426.153 24.3182C426.154 24.3182 426.155 24.3182 426.156 24.3182C426.157 24.3182 426.158 24.3182 426.159 24.3182C426.16 24.3182 426.161 24.3182 426.162 24.3182C426.163 24.3182 426.164 24.3182 426.164 24.3182C426.165 24.3182 426.166 24.3182 426.167 24.3182C426.168 24.3182 426.169 24.3182 426.17 24.3182C426.171 24.3182 426.172 24.3182 426.173 24.3182C426.174 24.3182 426.175 24.3182 426.176 24.3182C426.177 24.3182 426.178 24.3182 426.179 24.3182C426.18 24.3182 426.181 24.3182 426.182 24.3182C426.182 24.3182 426.183 24.3182 426.184 24.3182C426.185 24.3182 426.186 24.3182 426.187 24.3182C426.188 24.3182 426.189 24.3182 426.19 24.3182C426.191 24.3182 426.192 24.3182 426.193 24.3182C426.194 24.3182 426.195 24.3182 426.196 24.3182C426.197 24.3182 426.198 24.3182 426.199 24.3182C426.2 24.3182 426.2 24.3182 426.201 24.3182C426.202 24.3182 426.203 24.3182 426.204 24.3182C426.205 24.3182 426.206 24.3182 426.207 24.3182C426.208 24.3182 426.209 24.3182 426.21 24.3182C426.211 24.3182 426.212 24.3182 426.213 24.3182C426.214 24.3182 426.215 24.3182 426.216 24.3182C426.217 24.3182 426.218 24.3182 426.218 24.3182C426.219 24.3182 426.22 24.3182 426.221 24.3182C426.222 24.3182 426.223 24.3182 426.224 24.3182C426.225 24.3182 426.226 24.3182 426.227 24.3182C426.228 24.3182 426.229 24.3182 426.23 24.3182C426.231 24.3182 426.232 24.3182 426.233 24.3182C426.234 24.3182 426.235 24.3182 426.236 24.3182C426.236 24.3182 426.237 24.3182 426.238 24.3182C426.239 24.3182 426.24 24.3182 426.241 24.3182C426.242 24.3182 426.243 24.3182 426.244 24.3182C426.245 24.3182 426.246 24.3182 426.247 24.3182C426.248 24.3182 426.249 24.3182 426.25 24.3182C426.251 24.3182 426.252 24.3182 426.253 24.3182C426.254 24.3182 426.254 24.3182 426.255 24.3182C426.256 24.3182 426.257 24.3182 426.258 24.3182C426.259 24.3182 426.26 24.3182 426.261 24.3182C426.262 24.3182 426.263 24.3182 426.264 24.3182C426.265 24.3182 426.266 24.3182 426.267 24.3182C426.268 24.3182 426.269 24.3182 426.27 24.3182C426.271 24.3182 426.271 24.3182 426.272 24.3182C426.273 24.3182 426.274 24.3182 426.275 24.3182C426.276 24.3182 426.277 24.3182 426.278 24.3182C426.279 24.3182 426.28 24.3182 426.281 24.3182C426.282 24.3182 426.283 24.3182 426.284 24.3182C426.285 24.3182 426.286 24.3182 426.287 24.3182C426.288 24.3182 426.289 24.3182 426.289 24.3182C426.29 24.3182 426.291 24.3182 426.292 24.3182C426.293 24.3182 426.294 24.3182 426.295 24.3182C426.296 24.3182 426.297 24.3182 426.298 24.3182C426.299 24.3182 426.3 24.3182 426.301 24.3182C426.302 24.3182 426.303 24.3182 426.304 24.3182C426.305 24.3182 426.306 24.3182 426.307 24.3182C426.307 24.3182 426.308 24.3182 426.309 24.3182C426.31 24.3182 426.311 24.3182 426.312 24.3182C426.313 24.3182 426.314 24.3182 426.315 24.3182C426.316 24.3182 426.317 24.3182 426.318 24.3182C426.319 24.3182 426.32 24.3182 426.321 24.3182C426.322 24.3182 426.323 24.3182 426.324 24.3182C426.325 24.3182 426.325 24.3182 426.326 24.3182C426.327 24.3182 426.328 24.3182 426.329 24.3182C426.33 24.3182 426.331 24.3182 426.332 24.3182C426.333 24.3182 426.334 24.3182 426.335 24.3182C426.336 24.3182 426.337 24.3182 426.338 24.3182C426.339 24.3182 426.34 24.3182 426.341 24.3182C426.342 24.3182 426.343 24.3182 426.343 24.3182C426.344 24.3182 426.345 24.3182 426.346 24.3182C426.347 24.3182 426.348 24.3182 426.349 24.3182C426.35 24.3182 426.351 24.3182 426.352 24.3182C426.353 24.3182 426.354 24.3182 426.355 24.3182C426.356 24.3182 426.357 24.3182 426.358 24.3182C426.359 24.3182 426.36 24.3182 426.361 24.3182C426.361 24.3182 426.362 24.3182 426.363 24.3182C426.364 24.3182 426.365 24.3182 426.366 24.3182C426.367 24.3182 426.368 24.3182 426.369 24.3182C426.37 24.3182 426.371 24.3182 426.372 24.3182C426.373 24.3182 426.374 24.3182 426.375 24.3182C426.376 24.3182 426.377 24.3182 426.378 24.3182C426.379 24.3182 426.379 24.3182 426.38 24.3182C426.381 24.3182 426.382 24.3182 426.383 24.3182C426.384 24.3182 426.385 24.3182 426.386 24.3182C426.387 24.3182 426.388 24.3182 426.389 24.3182C426.39 24.3182 426.391 24.3182 426.392 24.3182C426.393 24.3182 426.394 24.3182 426.395 24.3182C426.396 24.3182 426.396 24.3182 426.397 24.3182C426.398 24.3182 426.399 24.3182 426.4 24.3182C426.401 24.3182 426.402 24.3182 426.403 24.3182C426.404 24.3182 426.405 24.3182 426.406 24.3182C426.407 24.3182 426.408 24.3182 426.409 24.3182C426.41 24.3182 426.411 24.3182 426.412 24.3182C426.413 24.3182 426.414 24.3182 426.414 24.3182C426.415 24.3182 426.416 24.3182 426.417 24.3182C426.418 24.3182 426.419 24.3182 426.42 24.3182C426.421 24.3182 426.422 24.3182 426.423 24.3182C426.424 24.3182 426.425 24.3182 426.426 24.3182C426.427 24.3182 426.428 24.3182 426.429 24.3182C426.43 24.3182 426.431 24.3182 426.432 24.3182C426.432 24.3182 426.433 24.3182 426.434 24.3182C426.435 24.3182 426.436 24.3182 426.437 24.3182C426.438 24.3182 426.439 24.3182 426.44 24.3182C426.441 24.3182 426.442 24.3182 426.443 24.3182C426.444 24.3182 426.445 24.3182 426.446 24.3182C426.447 24.3182 426.448 24.3182 426.449 24.3182C426.45 24.3182 426.45 24.3182 426.451 24.3182C426.452 24.3182 426.453 24.3182 426.454 24.3182C426.455 24.3182 426.456 24.3182 426.457 24.3182C426.458 24.3182 426.459 24.3182 426.46 24.3182C426.461 24.3182 426.462 24.3182 426.463 24.3182C426.464 24.3182 426.465 24.3182 426.466 24.3182C426.467 24.3182 426.468 24.3182 426.468 24.3182C426.469 24.3182 426.47 24.3182 426.471 24.3182C426.472 24.3182 426.473 24.3182 426.474 24.3182C426.475 24.3182 426.476 24.3182 426.477 24.3182C426.478 24.3182 426.479 24.3182 426.48 24.3182C426.481 24.3182 426.482 24.3182 426.483 24.3182C426.484 24.3182 426.485 24.3182 426.486 24.3182C426.486 24.3182 426.487 24.3182 426.488 24.3182C426.489 24.3182 426.49 24.3182 426.491 24.3182C426.492 24.3182 426.493 24.3182 426.494 24.3182C426.495 24.3182 426.496 24.3182 426.497 24.3182C426.498 24.3182 426.499 24.3182 426.5 24.3182C426.501 24.3182 426.502 24.3182 426.503 24.3182C426.504 24.3182 426.504 24.3182 426.505 24.3182C426.506 24.3182 426.507 24.3182 426.508 24.3182C426.509 24.3182 426.51 24.3182 426.511 24.3182C426.512 24.3182 426.513 24.3182 426.514 24.3182C426.515 24.3182 426.516 24.3182 426.517 24.3182C426.518 24.3182 426.519 24.3182 426.52 24.3182C426.521 24.3182 426.521 24.3182 426.522 24.3182C426.523 24.3182 426.524 24.3182 426.525 24.3182C426.526 24.3182 426.527 24.3182 426.528 24.3182C426.529 24.3182 426.53 24.3182 426.531 24.3182C426.532 24.3182 426.533 24.3182 426.534 24.3182C426.535 24.3182 426.536 24.3182 426.537 24.3182C426.538 24.3182 426.539 24.3182 426.539 24.3182C426.54 24.3182 426.541 24.3182 426.542 24.3182C426.543 24.3182 426.544 24.3182 426.545 24.3182C426.546 24.3182 426.547 24.3182 426.548 24.3182C426.549 24.3182 426.55 24.3182 426.551 24.3182C426.552 24.3182 426.553 24.3182 426.554 24.3182C426.555 24.3182 426.556 24.3182 426.557 24.3182C426.557 24.3182 426.558 24.3182 426.559 24.3182C426.56 24.3182 426.561 24.3182 426.562 24.3182C426.563 24.3182 426.564 24.3182 426.565 24.3182C426.566 24.3182 426.567 24.3182 426.568 24.3182C426.569 24.3182 426.57 24.3182 426.571 24.3182C426.572 24.3182 426.573 24.3182 426.574 24.3182C426.575 24.3182 426.575 24.3182 426.576 24.3182C426.577 24.3182 426.578 24.3182 426.579 24.3182C426.58 24.3182 426.581 24.3182 426.582 24.3182C426.583 24.3182 426.584 24.3182 426.585 24.3182C426.586 24.3182 426.587 24.3182 426.588 24.3182C426.589 24.3182 426.59 24.3182 426.591 24.3182C426.592 24.3182 426.593 24.3182 426.593 24.3182C426.594 24.3182 426.595 24.3182 426.596 24.3182C426.597 24.3182 426.598 24.3182 426.599 24.3182C426.6 24.3182 426.601 24.3182 426.602 24.3182C426.603 24.3182 426.604 24.3182 426.605 24.3182C426.606 24.3182 426.607 24.3182 426.608 24.3182C426.609 24.3182 426.61 24.3182 426.611 24.3182C426.611 24.3182 426.612 24.3182 426.613 24.3182C426.614 24.3182 426.615 24.3182 426.616 24.3182C426.617 24.3182 426.618 24.3182 426.619 24.3182C426.62 24.3182 426.621 24.3182 426.622 24.3182C426.623 24.3182 426.624 24.3182 426.625 24.3182C426.626 24.3182 426.627 24.3182 426.628 24.3182C426.629 24.3182 426.629 24.3182 426.63 24.3182C426.631 24.3182 426.632 24.3182 426.633 24.3182C426.634 24.3182 426.635 24.3182 426.636 24.3182C426.637 24.3182 426.638 24.3182 426.639 24.3182C426.64 24.3182 426.641 24.3182 426.642 24.3182C426.643 24.3182 426.644 24.3182 426.645 24.3182C426.646 24.3182 426.646 24.3182 426.647 24.3182C426.648 24.3182 426.649 24.3182 426.65 24.3182C426.651 24.3182 426.652 24.3182 426.653 24.3182C426.654 24.3182 426.655 24.3182 426.656 24.3182C426.657 24.3182 426.658 24.3182 426.659 24.3182C426.66 24.3182 426.661 24.3182 426.662 24.3182C426.663 24.3182 426.664 24.3182 426.664 24.3182C426.665 24.3182 426.666 24.3182 426.667 24.3182C426.668 24.3182 426.669 24.3182 426.67 24.3182C426.671 24.3182 426.672 24.3182 426.673 24.3182C426.674 24.3182 426.675 24.3182 426.676 24.3182C426.677 24.3182 426.678 24.3182 426.679 24.3182C426.68 24.3182 426.681 24.3182 426.682 24.3182C426.682 24.3182 426.683 24.3182 426.684 24.3182C426.685 24.3182 426.686 24.3182 426.687 24.3182C426.688 24.3182 426.689 24.3182 426.69 24.3182C426.691 24.3182 426.692 24.3182 426.693 24.3182C426.694 24.3182 426.695 24.3182 426.696 24.3182C426.697 24.3182 426.698 24.3182 426.699 24.3182C426.7 24.3182 426.7 24.3182 426.701 24.3182C426.702 24.3182 426.703 24.3182 426.704 24.3182C426.705 24.3182 426.706 24.3182 426.707 24.3182C426.708 24.3182 426.709 24.3182 426.71 24.3182C426.711 24.3182 426.712 24.3182 426.713 24.3182C426.714 24.3182 426.715 24.3182 426.716 24.3182C426.717 24.3182 426.718 24.3182 426.718 24.3182C426.719 24.3182 426.72 24.3182 426.721 24.3182C426.722 24.3182 426.723 24.3182 426.724 24.3182C426.725 24.3182 426.726 24.3182 426.727 24.3182C426.728 24.3182 426.729 24.3182 426.73 24.3182C426.731 24.3182 426.732 24.3182 426.733 24.3182C426.734 24.3182 426.735 24.3182 426.736 24.3182C426.736 24.3182 426.737 24.3182 426.738 24.3182C426.739 24.3182 426.74 24.3182 426.741 24.3182C426.742 24.3182 426.743 24.3182 426.744 24.3182C426.745 24.3182 426.746 24.3182 426.747 24.3182C426.748 24.3182 426.749 24.3182 426.75 24.3182C426.751 24.3182 426.752 24.3182 426.753 24.3182C426.754 24.3182 426.754 24.3182 426.755 24.3182C426.756 24.3182 426.757 24.3182 426.758 24.3182C426.759 24.3182 426.76 24.3182 426.761 24.3182C426.762 24.3182 426.763 24.3182 426.764 24.3182C426.765 24.3182 426.766 24.3182 426.767 24.3182C426.768 24.3182 426.769 24.3182 426.77 24.3182C426.771 24.3182 426.771 24.3182 426.772 24.3182C426.773 24.3182 426.774 24.3182 426.775 24.3182C426.776 24.3182 426.777 24.3182 426.778 24.3182C426.779 24.3182 426.78 24.3182 426.781 24.3182C426.782 24.3182 426.783 24.3182 426.784 24.3182C426.785 24.3182 426.786 24.3182 426.787 24.3182C426.788 24.3182 426.789 24.3182 426.789 24.3182C426.79 24.3182 426.791 24.3182 426.792 24.3182C426.793 24.3182 426.794 24.3182 426.795 24.3182C426.796 24.3182 426.797 24.3182 426.798 24.3182C426.799 24.3182 426.8 24.3182 426.801 24.3182C426.802 24.3182 426.803 24.3182 426.804 24.3182C426.805 24.3182 426.806 24.3182 426.807 24.3182C426.807 24.3182 426.808 24.3182 426.809 24.3182C426.81 24.3182 426.811 24.3182 426.812 24.3182C426.813 24.3182 426.814 24.3182 426.815 24.3182C426.816 24.3182 426.817 24.3182 426.818 24.3182C426.819 24.3182 426.82 24.3182 426.821 24.3182C426.822 24.3182 426.823 24.3182 426.824 24.3182C426.825 24.3182 426.825 24.3182 426.826 24.3182C426.827 24.3182 426.828 24.3182 426.829 24.3182C426.83 24.3182 426.831 24.3182 426.832 24.3182C426.833 24.3182 426.834 24.3182 426.835 24.3182C426.836 24.3182 426.837 24.3182 426.838 24.3182C426.839 24.3182 426.84 24.3182 426.841 24.3182C426.842 24.3182 426.843 24.3182 426.843 24.3182C426.844 24.3182 426.845 24.3182 426.846 24.3182V23.3182V22.3182C426.845 22.3182 426.844 22.3182 426.843 22.3182C426.843 22.3182 426.842 22.3182 426.841 22.3182C426.84 22.3182 426.839 22.3182 426.838 22.3182C426.837 22.3182 426.836 22.3182 426.835 22.3182C426.834 22.3182 426.833 22.3182 426.832 22.3182C426.831 22.3182 426.83 22.3182 426.829 22.3182C426.828 22.3182 426.827 22.3182 426.826 22.3182C426.825 22.3182 426.825 22.3182 426.824 22.3182C426.823 22.3182 426.822 22.3182 426.821 22.3182C426.82 22.3182 426.819 22.3182 426.818 22.3182C426.817 22.3182 426.816 22.3182 426.815 22.3182C426.814 22.3182 426.813 22.3182 426.812 22.3182C426.811 22.3182 426.81 22.3182 426.809 22.3182C426.808 22.3182 426.807 22.3182 426.807 22.3182C426.806 22.3182 426.805 22.3182 426.804 22.3182C426.803 22.3182 426.802 22.3182 426.801 22.3182C426.8 22.3182 426.799 22.3182 426.798 22.3182C426.797 22.3182 426.796 22.3182 426.795 22.3182C426.794 22.3182 426.793 22.3182 426.792 22.3182C426.791 22.3182 426.79 22.3182 426.789 22.3182C426.789 22.3182 426.788 22.3182 426.787 22.3182C426.786 22.3182 426.785 22.3182 426.784 22.3182C426.783 22.3182 426.782 22.3182 426.781 22.3182C426.78 22.3182 426.779 22.3182 426.778 22.3182C426.777 22.3182 426.776 22.3182 426.775 22.3182C426.774 22.3182 426.773 22.3182 426.772 22.3182C426.771 22.3182 426.771 22.3182 426.77 22.3182C426.769 22.3182 426.768 22.3182 426.767 22.3182C426.766 22.3182 426.765 22.3182 426.764 22.3182C426.763 22.3182 426.762 22.3182 426.761 22.3182C426.76 22.3182 426.759 22.3182 426.758 22.3182C426.757 22.3182 426.756 22.3182 426.755 22.3182C426.754 22.3182 426.754 22.3182 426.753 22.3182C426.752 22.3182 426.751 22.3182 426.75 22.3182C426.749 22.3182 426.748 22.3182 426.747 22.3182C426.746 22.3182 426.745 22.3182 426.744 22.3182C426.743 22.3182 426.742 22.3182 426.741 22.3182C426.74 22.3182 426.739 22.3182 426.738 22.3182C426.737 22.3182 426.736 22.3182 426.736 22.3182C426.735 22.3182 426.734 22.3182 426.733 22.3182C426.732 22.3182 426.731 22.3182 426.73 22.3182C426.729 22.3182 426.728 22.3182 426.727 22.3182C426.726 22.3182 426.725 22.3182 426.724 22.3182C426.723 22.3182 426.722 22.3182 426.721 22.3182C426.72 22.3182 426.719 22.3182 426.718 22.3182C426.718 22.3182 426.717 22.3182 426.716 22.3182C426.715 22.3182 426.714 22.3182 426.713 22.3182C426.712 22.3182 426.711 22.3182 426.71 22.3182C426.709 22.3182 426.708 22.3182 426.707 22.3182C426.706 22.3182 426.705 22.3182 426.704 22.3182C426.703 22.3182 426.702 22.3182 426.701 22.3182C426.7 22.3182 426.7 22.3182 426.699 22.3182C426.698 22.3182 426.697 22.3182 426.696 22.3182C426.695 22.3182 426.694 22.3182 426.693 22.3182C426.692 22.3182 426.691 22.3182 426.69 22.3182C426.689 22.3182 426.688 22.3182 426.687 22.3182C426.686 22.3182 426.685 22.3182 426.684 22.3182C426.683 22.3182 426.682 22.3182 426.682 22.3182C426.681 22.3182 426.68 22.3182 426.679 22.3182C426.678 22.3182 426.677 22.3182 426.676 22.3182C426.675 22.3182 426.674 22.3182 426.673 22.3182C426.672 22.3182 426.671 22.3182 426.67 22.3182C426.669 22.3182 426.668 22.3182 426.667 22.3182C426.666 22.3182 426.665 22.3182 426.664 22.3182C426.664 22.3182 426.663 22.3182 426.662 22.3182C426.661 22.3182 426.66 22.3182 426.659 22.3182C426.658 22.3182 426.657 22.3182 426.656 22.3182C426.655 22.3182 426.654 22.3182 426.653 22.3182C426.652 22.3182 426.651 22.3182 426.65 22.3182C426.649 22.3182 426.648 22.3182 426.647 22.3182C426.646 22.3182 426.646 22.3182 426.645 22.3182C426.644 22.3182 426.643 22.3182 426.642 22.3182C426.641 22.3182 426.64 22.3182 426.639 22.3182C426.638 22.3182 426.637 22.3182 426.636 22.3182C426.635 22.3182 426.634 22.3182 426.633 22.3182C426.632 22.3182 426.631 22.3182 426.63 22.3182C426.629 22.3182 426.629 22.3182 426.628 22.3182C426.627 22.3182 426.626 22.3182 426.625 22.3182C426.624 22.3182 426.623 22.3182 426.622 22.3182C426.621 22.3182 426.62 22.3182 426.619 22.3182C426.618 22.3182 426.617 22.3182 426.616 22.3182C426.615 22.3182 426.614 22.3182 426.613 22.3182C426.612 22.3182 426.611 22.3182 426.611 22.3182C426.61 22.3182 426.609 22.3182 426.608 22.3182C426.607 22.3182 426.606 22.3182 426.605 22.3182C426.604 22.3182 426.603 22.3182 426.602 22.3182C426.601 22.3182 426.6 22.3182 426.599 22.3182C426.598 22.3182 426.597 22.3182 426.596 22.3182C426.595 22.3182 426.594 22.3182 426.593 22.3182C426.593 22.3182 426.592 22.3182 426.591 22.3182C426.59 22.3182 426.589 22.3182 426.588 22.3182C426.587 22.3182 426.586 22.3182 426.585 22.3182C426.584 22.3182 426.583 22.3182 426.582 22.3182C426.581 22.3182 426.58 22.3182 426.579 22.3182C426.578 22.3182 426.577 22.3182 426.576 22.3182C426.575 22.3182 426.575 22.3182 426.574 22.3182C426.573 22.3182 426.572 22.3182 426.571 22.3182C426.57 22.3182 426.569 22.3182 426.568 22.3182C426.567 22.3182 426.566 22.3182 426.565 22.3182C426.564 22.3182 426.563 22.3182 426.562 22.3182C426.561 22.3182 426.56 22.3182 426.559 22.3182C426.558 22.3182 426.557 22.3182 426.557 22.3182C426.556 22.3182 426.555 22.3182 426.554 22.3182C426.553 22.3182 426.552 22.3182 426.551 22.3182C426.55 22.3182 426.549 22.3182 426.548 22.3182C426.547 22.3182 426.546 22.3182 426.545 22.3182C426.544 22.3182 426.543 22.3182 426.542 22.3182C426.541 22.3182 426.54 22.3182 426.539 22.3182C426.539 22.3182 426.538 22.3182 426.537 22.3182C426.536 22.3182 426.535 22.3182 426.534 22.3182C426.533 22.3182 426.532 22.3182 426.531 22.3182C426.53 22.3182 426.529 22.3182 426.528 22.3182C426.527 22.3182 426.526 22.3182 426.525 22.3182C426.524 22.3182 426.523 22.3182 426.522 22.3182C426.521 22.3182 426.521 22.3182 426.52 22.3182C426.519 22.3182 426.518 22.3182 426.517 22.3182C426.516 22.3182 426.515 22.3182 426.514 22.3182C426.513 22.3182 426.512 22.3182 426.511 22.3182C426.51 22.3182 426.509 22.3182 426.508 22.3182C426.507 22.3182 426.506 22.3182 426.505 22.3182C426.504 22.3182 426.504 22.3182 426.503 22.3182C426.502 22.3182 426.501 22.3182 426.5 22.3182C426.499 22.3182 426.498 22.3182 426.497 22.3182C426.496 22.3182 426.495 22.3182 426.494 22.3182C426.493 22.3182 426.492 22.3182 426.491 22.3182C426.49 22.3182 426.489 22.3182 426.488 22.3182C426.487 22.3182 426.486 22.3182 426.486 22.3182C426.485 22.3182 426.484 22.3182 426.483 22.3182C426.482 22.3182 426.481 22.3182 426.48 22.3182C426.479 22.3182 426.478 22.3182 426.477 22.3182C426.476 22.3182 426.475 22.3182 426.474 22.3182C426.473 22.3182 426.472 22.3182 426.471 22.3182C426.47 22.3182 426.469 22.3182 426.468 22.3182C426.468 22.3182 426.467 22.3182 426.466 22.3182C426.465 22.3182 426.464 22.3182 426.463 22.3182C426.462 22.3182 426.461 22.3182 426.46 22.3182C426.459 22.3182 426.458 22.3182 426.457 22.3182C426.456 22.3182 426.455 22.3182 426.454 22.3182C426.453 22.3182 426.452 22.3182 426.451 22.3182C426.45 22.3182 426.45 22.3182 426.449 22.3182C426.448 22.3182 426.447 22.3182 426.446 22.3182C426.445 22.3182 426.444 22.3182 426.443 22.3182C426.442 22.3182 426.441 22.3182 426.44 22.3182C426.439 22.3182 426.438 22.3182 426.437 22.3182C426.436 22.3182 426.435 22.3182 426.434 22.3182C426.433 22.3182 426.432 22.3182 426.432 22.3182C426.431 22.3182 426.43 22.3182 426.429 22.3182C426.428 22.3182 426.427 22.3182 426.426 22.3182C426.425 22.3182 426.424 22.3182 426.423 22.3182C426.422 22.3182 426.421 22.3182 426.42 22.3182C426.419 22.3182 426.418 22.3182 426.417 22.3182C426.416 22.3182 426.415 22.3182 426.414 22.3182C426.414 22.3182 426.413 22.3182 426.412 22.3182C426.411 22.3182 426.41 22.3182 426.409 22.3182C426.408 22.3182 426.407 22.3182 426.406 22.3182C426.405 22.3182 426.404 22.3182 426.403 22.3182C426.402 22.3182 426.401 22.3182 426.4 22.3182C426.399 22.3182 426.398 22.3182 426.397 22.3182C426.396 22.3182 426.396 22.3182 426.395 22.3182C426.394 22.3182 426.393 22.3182 426.392 22.3182C426.391 22.3182 426.39 22.3182 426.389 22.3182C426.388 22.3182 426.387 22.3182 426.386 22.3182C426.385 22.3182 426.384 22.3182 426.383 22.3182C426.382 22.3182 426.381 22.3182 426.38 22.3182C426.379 22.3182 426.379 22.3182 426.378 22.3182C426.377 22.3182 426.376 22.3182 426.375 22.3182C426.374 22.3182 426.373 22.3182 426.372 22.3182C426.371 22.3182 426.37 22.3182 426.369 22.3182C426.368 22.3182 426.367 22.3182 426.366 22.3182C426.365 22.3182 426.364 22.3182 426.363 22.3182C426.362 22.3182 426.361 22.3182 426.361 22.3182C426.36 22.3182 426.359 22.3182 426.358 22.3182C426.357 22.3182 426.356 22.3182 426.355 22.3182C426.354 22.3182 426.353 22.3182 426.352 22.3182C426.351 22.3182 426.35 22.3182 426.349 22.3182C426.348 22.3182 426.347 22.3182 426.346 22.3182C426.345 22.3182 426.344 22.3182 426.343 22.3182C426.343 22.3182 426.342 22.3182 426.341 22.3182C426.34 22.3182 426.339 22.3182 426.338 22.3182C426.337 22.3182 426.336 22.3182 426.335 22.3182C426.334 22.3182 426.333 22.3182 426.332 22.3182C426.331 22.3182 426.33 22.3182 426.329 22.3182C426.328 22.3182 426.327 22.3182 426.326 22.3182C426.325 22.3182 426.325 22.3182 426.324 22.3182C426.323 22.3182 426.322 22.3182 426.321 22.3182C426.32 22.3182 426.319 22.3182 426.318 22.3182C426.317 22.3182 426.316 22.3182 426.315 22.3182C426.314 22.3182 426.313 22.3182 426.312 22.3182C426.311 22.3182 426.31 22.3182 426.309 22.3182C426.308 22.3182 426.307 22.3182 426.307 22.3182C426.306 22.3182 426.305 22.3182 426.304 22.3182C426.303 22.3182 426.302 22.3182 426.301 22.3182C426.3 22.3182 426.299 22.3182 426.298 22.3182C426.297 22.3182 426.296 22.3182 426.295 22.3182C426.294 22.3182 426.293 22.3182 426.292 22.3182C426.291 22.3182 426.29 22.3182 426.289 22.3182C426.289 22.3182 426.288 22.3182 426.287 22.3182C426.286 22.3182 426.285 22.3182 426.284 22.3182C426.283 22.3182 426.282 22.3182 426.281 22.3182C426.28 22.3182 426.279 22.3182 426.278 22.3182C426.277 22.3182 426.276 22.3182 426.275 22.3182C426.274 22.3182 426.273 22.3182 426.272 22.3182C426.271 22.3182 426.271 22.3182 426.27 22.3182C426.269 22.3182 426.268 22.3182 426.267 22.3182C426.266 22.3182 426.265 22.3182 426.264 22.3182C426.263 22.3182 426.262 22.3182 426.261 22.3182C426.26 22.3182 426.259 22.3182 426.258 22.3182C426.257 22.3182 426.256 22.3182 426.255 22.3182C426.254 22.3182 426.254 22.3182 426.253 22.3182C426.252 22.3182 426.251 22.3182 426.25 22.3182C426.249 22.3182 426.248 22.3182 426.247 22.3182C426.246 22.3182 426.245 22.3182 426.244 22.3182C426.243 22.3182 426.242 22.3182 426.241 22.3182C426.24 22.3182 426.239 22.3182 426.238 22.3182C426.237 22.3182 426.236 22.3182 426.236 22.3182C426.235 22.3182 426.234 22.3182 426.233 22.3182C426.232 22.3182 426.231 22.3182 426.23 22.3182C426.229 22.3182 426.228 22.3182 426.227 22.3182C426.226 22.3182 426.225 22.3182 426.224 22.3182C426.223 22.3182 426.222 22.3182 426.221 22.3182C426.22 22.3182 426.219 22.3182 426.218 22.3182C426.218 22.3182 426.217 22.3182 426.216 22.3182C426.215 22.3182 426.214 22.3182 426.213 22.3182C426.212 22.3182 426.211 22.3182 426.21 22.3182C426.209 22.3182 426.208 22.3182 426.207 22.3182C426.206 22.3182 426.205 22.3182 426.204 22.3182C426.203 22.3182 426.202 22.3182 426.201 22.3182C426.2 22.3182 426.2 22.3182 426.199 22.3182C426.198 22.3182 426.197 22.3182 426.196 22.3182C426.195 22.3182 426.194 22.3182 426.193 22.3182C426.192 22.3182 426.191 22.3182 426.19 22.3182C426.189 22.3182 426.188 22.3182 426.187 22.3182C426.186 22.3182 426.185 22.3182 426.184 22.3182C426.183 22.3182 426.182 22.3182 426.182 22.3182C426.181 22.3182 426.18 22.3182 426.179 22.3182C426.178 22.3182 426.177 22.3182 426.176 22.3182C426.175 22.3182 426.174 22.3182 426.173 22.3182C426.172 22.3182 426.171 22.3182 426.17 22.3182C426.169 22.3182 426.168 22.3182 426.167 22.3182C426.166 22.3182 426.165 22.3182 426.164 22.3182C426.164 22.3182 426.163 22.3182 426.162 22.3182C426.161 22.3182 426.16 22.3182 426.159 22.3182C426.158 22.3182 426.157 22.3182 426.156 22.3182C426.155 22.3182 426.154 22.3182 426.153 22.3182C426.152 22.3182 426.151 22.3182 426.15 22.3182C426.149 22.3182 426.148 22.3182 426.147 22.3182C426.146 22.3182 426.146 22.3182 426.145 22.3182C426.144 22.3182 426.143 22.3182 426.142 22.3182C426.141 22.3182 426.14 22.3182 426.139 22.3182C426.138 22.3182 426.137 22.3182 426.136 22.3182C426.135 22.3182 426.134 22.3182 426.133 22.3182C426.132 22.3182 426.131 22.3182 426.13 22.3182C426.129 22.3182 426.129 22.3182 426.128 22.3182C426.127 22.3182 426.126 22.3182 426.125 22.3182C426.124 22.3182 426.123 22.3182 426.122 22.3182C426.121 22.3182 426.12 22.3182 426.119 22.3182C426.118 22.3182 426.117 22.3182 426.116 22.3182C426.115 22.3182 426.114 22.3182 426.113 22.3182C426.112 22.3182 426.111 22.3182 426.111 22.3182C426.11 22.3182 426.109 22.3182 426.108 22.3182C426.107 22.3182 426.106 22.3182 426.105 22.3182C426.104 22.3182 426.103 22.3182 426.102 22.3182C426.101 22.3182 426.1 22.3182 426.099 22.3182C426.098 22.3182 426.097 22.3182 426.096 22.3182C426.095 22.3182 426.094 22.3182 426.093 22.3182C426.093 22.3182 426.092 22.3182 426.091 22.3182C426.09 22.3182 426.089 22.3182 426.088 22.3182C426.087 22.3182 426.086 22.3182 426.085 22.3182C426.084 22.3182 426.083 22.3182 426.082 22.3182C426.081 22.3182 426.08 22.3182 426.079 22.3182C426.078 22.3182 426.077 22.3182 426.076 22.3182C426.075 22.3182 426.075 22.3182 426.074 22.3182C426.073 22.3182 426.072 22.3182 426.071 22.3182C426.07 22.3182 426.069 22.3182 426.068 22.3182C426.067 22.3182 426.066 22.3182 426.065 22.3182C426.064 22.3182 426.063 22.3182 426.062 22.3182C426.061 22.3182 426.06 22.3182 426.059 22.3182C426.058 22.3182 426.057 22.3182 426.057 22.3182C426.056 22.3182 426.055 22.3182 426.054 22.3182C426.053 22.3182 426.052 22.3182 426.051 22.3182C426.05 22.3182 426.049 22.3182 426.048 22.3182C426.047 22.3182 426.046 22.3182 426.045 22.3182C426.044 22.3182 426.043 22.3182 426.042 22.3182C426.041 22.3182 426.04 22.3182 426.039 22.3182C426.039 22.3182 426.038 22.3182 426.037 22.3182C426.036 22.3182 426.035 22.3182 426.034 22.3182C426.033 22.3182 426.032 22.3182 426.031 22.3182C426.03 22.3182 426.029 22.3182 426.028 22.3182C426.027 22.3182 426.026 22.3182 426.025 22.3182C426.024 22.3182 426.023 22.3182 426.022 22.3182C426.021 22.3182 426.021 22.3182 426.02 22.3182C426.019 22.3182 426.018 22.3182 426.017 22.3182C426.016 22.3182 426.015 22.3182 426.014 22.3182C426.013 22.3182 426.012 22.3182 426.011 22.3182C426.01 22.3182 426.009 22.3182 426.008 22.3182C426.007 22.3182 426.006 22.3182 426.005 22.3182C426.004 22.3182 426.004 22.3182 426.003 22.3182C426.002 22.3182 426.001 22.3182 426 22.3182C425.999 22.3182 425.998 22.3182 425.997 22.3182C425.996 22.3182 425.995 22.3182 425.994 22.3182C425.993 22.3182 425.992 22.3182 425.991 22.3182C425.99 22.3182 425.989 22.3182 425.988 22.3182C425.987 22.3182 425.986 22.3182 425.986 22.3182C425.985 22.3182 425.984 22.3182 425.983 22.3182C425.982 22.3182 425.981 22.3182 425.98 22.3182C425.979 22.3182 425.978 22.3182 425.977 22.3182C425.976 22.3182 425.975 22.3182 425.974 22.3182C425.973 22.3182 425.972 22.3182 425.971 22.3182C425.97 22.3182 425.969 22.3182 425.968 22.3182C425.968 22.3182 425.967 22.3182 425.966 22.3182C425.965 22.3182 425.964 22.3182 425.963 22.3182C425.962 22.3182 425.961 22.3182 425.96 22.3182C425.959 22.3182 425.958 22.3182 425.957 22.3182C425.956 22.3182 425.955 22.3182 425.954 22.3182C425.953 22.3182 425.952 22.3182 425.951 22.3182C425.95 22.3182 425.95 22.3182 425.949 22.3182C425.948 22.3182 425.947 22.3182 425.946 22.3182C425.945 22.3182 425.944 22.3182 425.943 22.3182C425.942 22.3182 425.941 22.3182 425.94 22.3182C425.939 22.3182 425.938 22.3182 425.937 22.3182C425.936 22.3182 425.935 22.3182 425.934 22.3182C425.933 22.3182 425.932 22.3182 425.932 22.3182C425.931 22.3182 425.93 22.3182 425.929 22.3182C425.928 22.3182 425.927 22.3182 425.926 22.3182C425.925 22.3182 425.924 22.3182 425.923 22.3182C425.922 22.3182 425.921 22.3182 425.92 22.3182C425.919 22.3182 425.918 22.3182 425.917 22.3182C425.916 22.3182 425.915 22.3182 425.914 22.3182C425.914 22.3182 425.913 22.3182 425.912 22.3182C425.911 22.3182 425.91 22.3182 425.909 22.3182C425.908 22.3182 425.907 22.3182 425.906 22.3182C425.905 22.3182 425.904 22.3182 425.903 22.3182C425.902 22.3182 425.901 22.3182 425.9 22.3182C425.899 22.3182 425.898 22.3182 425.897 22.3182C425.896 22.3182 425.896 22.3182 425.895 22.3182C425.894 22.3182 425.893 22.3182 425.892 22.3182C425.891 22.3182 425.89 22.3182 425.889 22.3182C425.888 22.3182 425.887 22.3182 425.886 22.3182C425.885 22.3182 425.884 22.3182 425.883 22.3182C425.882 22.3182 425.881 22.3182 425.88 22.3182C425.879 22.3182 425.879 22.3182 425.878 22.3182C425.877 22.3182 425.876 22.3182 425.875 22.3182C425.874 22.3182 425.873 22.3182 425.872 22.3182C425.871 22.3182 425.87 22.3182 425.869 22.3182C425.868 22.3182 425.867 22.3182 425.866 22.3182C425.865 22.3182 425.864 22.3182 425.863 22.3182C425.862 22.3182 425.861 22.3182 425.861 22.3182C425.86 22.3182 425.859 22.3182 425.858 22.3182C425.857 22.3182 425.856 22.3182 425.855 22.3182C425.854 22.3182 425.853 22.3182 425.852 22.3182C425.851 22.3182 425.85 22.3182 425.849 22.3182C425.848 22.3182 425.847 22.3182 425.846 22.3182C425.845 22.3182 425.844 22.3182 425.843 22.3182C425.843 22.3182 425.842 22.3182 425.841 22.3182C425.84 22.3182 425.839 22.3182 425.838 22.3182C425.837 22.3182 425.836 22.3182 425.835 22.3182C425.834 22.3182 425.833 22.3182 425.832 22.3182C425.831 22.3182 425.83 22.3182 425.829 22.3182C425.828 22.3182 425.827 22.3182 425.826 22.3182C425.825 22.3182 425.825 22.3182 425.824 22.3182C425.823 22.3182 425.822 22.3182 425.821 22.3182C425.82 22.3182 425.819 22.3182 425.818 22.3182C425.817 22.3182 425.816 22.3182 425.815 22.3182C425.814 22.3182 425.813 22.3182 425.812 22.3182C425.811 22.3182 425.81 22.3182 425.809 22.3182C425.808 22.3182 425.807 22.3182 425.807 22.3182C425.806 22.3182 425.805 22.3182 425.804 22.3182C425.803 22.3182 425.802 22.3182 425.801 22.3182C425.8 22.3182 425.799 22.3182 425.798 22.3182C425.797 22.3182 425.796 22.3182 425.795 22.3182C425.794 22.3182 425.793 22.3182 425.792 22.3182C425.791 22.3182 425.79 22.3182 425.789 22.3182C425.789 22.3182 425.788 22.3182 425.787 22.3182C425.786 22.3182 425.785 22.3182 425.784 22.3182C425.783 22.3182 425.782 22.3182 425.781 22.3182C425.78 22.3182 425.779 22.3182 425.778 22.3182C425.777 22.3182 425.776 22.3182 425.775 22.3182C425.774 22.3182 425.773 22.3182 425.772 22.3182C425.771 22.3182 425.771 22.3182 425.77 22.3182C425.769 22.3182 425.768 22.3182 425.767 22.3182C425.766 22.3182 425.765 22.3182 425.764 22.3182C425.763 22.3182 425.762 22.3182 425.761 22.3182C425.76 22.3182 425.759 22.3182 425.758 22.3182C425.757 22.3182 425.756 22.3182 425.755 22.3182C425.754 22.3182 425.754 22.3182 425.753 22.3182C425.752 22.3182 425.751 22.3182 425.75 22.3182C425.749 22.3182 425.748 22.3182 425.747 22.3182C425.746 22.3182 425.745 22.3182 425.744 22.3182C425.743 22.3182 425.742 22.3182 425.741 22.3182C425.74 22.3182 425.739 22.3182 425.738 22.3182C425.737 22.3182 425.736 22.3182 425.736 22.3182C425.735 22.3182 425.734 22.3182 425.733 22.3182C425.732 22.3182 425.731 22.3182 425.73 22.3182C425.729 22.3182 425.728 22.3182 425.727 22.3182C425.726 22.3182 425.725 22.3182 425.724 22.3182C425.723 22.3182 425.722 22.3182 425.721 22.3182C425.72 22.3182 425.719 22.3182 425.718 22.3182C425.718 22.3182 425.717 22.3182 425.716 22.3182C425.715 22.3182 425.714 22.3182 425.713 22.3182C425.712 22.3182 425.711 22.3182 425.71 22.3182C425.709 22.3182 425.708 22.3182 425.707 22.3182C425.706 22.3182 425.705 22.3182 425.704 22.3182C425.703 22.3182 425.702 22.3182 425.701 22.3182C425.7 22.3182 425.7 22.3182 425.699 22.3182C425.698 22.3182 425.697 22.3182 425.696 22.3182C425.695 22.3182 425.694 22.3182 425.693 22.3182C425.692 22.3182 425.691 22.3182 425.69 22.3182C425.689 22.3182 425.688 22.3182 425.687 22.3182C425.686 22.3182 425.685 22.3182 425.684 22.3182C425.683 22.3182 425.682 22.3182 425.682 22.3182C425.681 22.3182 425.68 22.3182 425.679 22.3182C425.678 22.3182 425.677 22.3182 425.676 22.3182C425.675 22.3182 425.674 22.3182 425.673 22.3182C425.672 22.3182 425.671 22.3182 425.67 22.3182C425.669 22.3182 425.668 22.3182 425.667 22.3182C425.666 22.3182 425.665 22.3182 425.664 22.3182C425.664 22.3182 425.663 22.3182 425.662 22.3182C425.661 22.3182 425.66 22.3182 425.659 22.3182C425.658 22.3182 425.657 22.3182 425.656 22.3182C425.655 22.3182 425.654 22.3182 425.653 22.3182C425.652 22.3182 425.651 22.3182 425.65 22.3182C425.649 22.3182 425.648 22.3182 425.647 22.3182C425.646 22.3182 425.646 22.3182 425.645 22.3182C425.644 22.3182 425.643 22.3182 425.642 22.3182C425.641 22.3182 425.64 22.3182 425.639 22.3182C425.638 22.3182 425.637 22.3182 425.636 22.3182C425.635 22.3182 425.634 22.3182 425.633 22.3182C425.632 22.3182 425.631 22.3182 425.63 22.3182C425.629 22.3182 425.629 22.3182 425.628 22.3182C425.627 22.3182 425.626 22.3182 425.625 22.3182C425.624 22.3182 425.623 22.3182 425.622 22.3182C425.621 22.3182 425.62 22.3182 425.619 22.3182C425.618 22.3182 425.617 22.3182 425.616 22.3182C425.615 22.3182 425.614 22.3182 425.613 22.3182C425.612 22.3182 425.611 22.3182 425.611 22.3182C425.61 22.3182 425.609 22.3182 425.608 22.3182C425.607 22.3182 425.606 22.3182 425.605 22.3182C425.604 22.3182 425.603 22.3182 425.602 22.3182C425.601 22.3182 425.6 22.3182 425.599 22.3182C425.598 22.3182 425.597 22.3182 425.596 22.3182C425.595 22.3182 425.594 22.3182 425.593 22.3182C425.593 22.3182 425.592 22.3182 425.591 22.3182C425.59 22.3182 425.589 22.3182 425.588 22.3182C425.587 22.3182 425.586 22.3182 425.585 22.3182C425.584 22.3182 425.583 22.3182 425.582 22.3182C425.581 22.3182 425.58 22.3182 425.579 22.3182C425.578 22.3182 425.577 22.3182 425.576 22.3182C425.575 22.3182 425.575 22.3182 425.574 22.3182C425.573 22.3182 425.572 22.3182 425.571 22.3182C425.57 22.3182 425.569 22.3182 425.568 22.3182C425.567 22.3182 425.566 22.3182 425.565 22.3182C425.564 22.3182 425.563 22.3182 425.562 22.3182C425.561 22.3182 425.56 22.3182 425.559 22.3182C425.558 22.3182 425.557 22.3182 425.557 22.3182C425.556 22.3182 425.555 22.3182 425.554 22.3182C425.553 22.3182 425.552 22.3182 425.551 22.3182C425.55 22.3182 425.549 22.3182 425.548 22.3182C425.547 22.3182 425.546 22.3182 425.545 22.3182C425.544 22.3182 425.543 22.3182 425.542 22.3182C425.541 22.3182 425.54 22.3182 425.539 22.3182C425.539 22.3182 425.538 22.3182 425.537 22.3182C425.536 22.3182 425.535 22.3182 425.534 22.3182C425.533 22.3182 425.532 22.3182 425.531 22.3182C425.53 22.3182 425.529 22.3182 425.528 22.3182C425.527 22.3182 425.526 22.3182 425.525 22.3182C425.524 22.3182 425.523 22.3182 425.522 22.3182C425.521 22.3182 425.521 22.3182 425.52 22.3182C425.519 22.3182 425.518 22.3182 425.517 22.3182C425.516 22.3182 425.515 22.3182 425.514 22.3182C425.513 22.3182 425.512 22.3182 425.511 22.3182C425.51 22.3182 425.509 22.3182 425.508 22.3182C425.507 22.3182 425.506 22.3182 425.505 22.3182C425.504 22.3182 425.504 22.3182 425.503 22.3182C425.502 22.3182 425.501 22.3182 425.5 22.3182C425.499 22.3182 425.498 22.3182 425.497 22.3182C425.496 22.3182 425.495 22.3182 425.494 22.3182C425.493 22.3182 425.492 22.3182 425.491 22.3182C425.49 22.3182 425.489 22.3182 425.488 22.3182C425.487 22.3182 425.486 22.3182 425.486 22.3182C425.485 22.3182 425.484 22.3182 425.483 22.3182C425.482 22.3182 425.481 22.3182 425.48 22.3182C425.479 22.3182 425.478 22.3182 425.477 22.3182C425.476 22.3182 425.475 22.3182 425.474 22.3182C425.473 22.3182 425.472 22.3182 425.471 22.3182C425.47 22.3182 425.469 22.3182 425.468 22.3182C425.468 22.3182 425.467 22.3182 425.466 22.3182C425.465 22.3182 425.464 22.3182 425.463 22.3182C425.462 22.3182 425.461 22.3182 425.46 22.3182C425.459 22.3182 425.458 22.3182 425.457 22.3182C425.456 22.3182 425.455 22.3182 425.454 22.3182C425.453 22.3182 425.452 22.3182 425.451 22.3182C425.45 22.3182 425.45 22.3182 425.449 22.3182C425.448 22.3182 425.447 22.3182 425.446 22.3182C425.445 22.3182 425.444 22.3182 425.443 22.3182C425.442 22.3182 425.441 22.3182 425.44 22.3182C425.439 22.3182 425.438 22.3182 425.437 22.3182C425.436 22.3182 425.435 22.3182 425.434 22.3182C425.433 22.3182 425.432 22.3182 425.432 22.3182C425.431 22.3182 425.43 22.3182 425.429 22.3182C425.428 22.3182 425.427 22.3182 425.426 22.3182C425.425 22.3182 425.424 22.3182 425.423 22.3182C425.422 22.3182 425.421 22.3182 425.42 22.3182C425.419 22.3182 425.418 22.3182 425.417 22.3182C425.416 22.3182 425.415 22.3182 425.414 22.3182C425.414 22.3182 425.413 22.3182 425.412 22.3182C425.411 22.3182 425.41 22.3182 425.409 22.3182C425.408 22.3182 425.407 22.3182 425.406 22.3182C425.405 22.3182 425.404 22.3182 425.403 22.3182C425.402 22.3182 425.401 22.3182 425.4 22.3182C425.399 22.3182 425.398 22.3182 425.397 22.3182C425.396 22.3182 425.396 22.3182 425.395 22.3182C425.394 22.3182 425.393 22.3182 425.392 22.3182V23.3182ZM426.846 23.3182V24.3182C427.311 24.3182 427.741 24.3327 428.139 24.3611L428.21 23.3636L428.281 22.3662C427.83 22.334 427.352 22.3182 426.846 22.3182V23.3182ZM428.21 23.3636H427.21V28.9545H428.21H429.21V23.3636H428.21ZM428.21 28.9545L428.293 27.958C427.944 27.9289 427.517 27.8848 427.009 27.825L426.892 28.8182L426.775 29.8113C427.297 29.8728 427.748 29.9195 428.127 29.9511L428.21 28.9545ZM426.892 28.8182L427.076 27.8353C426.509 27.729 425.837 27.6818 425.074 27.6818V28.6818V29.6818C425.765 29.6818 426.305 29.7255 426.707 29.8011L426.892 28.8182ZM425.074 28.6818V27.6818C421.047 27.6818 417.423 28.5482 414.228 30.3056L414.71 31.1818L415.192 32.058C418.057 30.4821 421.342 29.6818 425.074 29.6818V28.6818ZM414.71 31.1818L414.224 30.3077C411.069 32.0604 408.575 34.4899 406.757 37.5843L407.619 38.0909L408.481 38.5975C410.117 35.8131 412.351 33.6365 415.196 32.056L414.71 31.1818ZM407.619 38.0909L406.759 37.5804C404.93 40.6606 404.028 44.1741 404.028 48.0909H405.028H406.028C406.028 44.4926 406.853 41.3394 408.479 38.6015L407.619 38.0909ZM405.028 48.0909H404.028V94.0909H405.028H406.028V48.0909H405.028ZM405.028 94.0909V93.0909H399.483V94.0909V95.0909H405.028V94.0909Z" fill="black" mask="url(#path-1-outside-1_12_2)"/>
<defs>
<linearGradient id="paint0_linear_12_2" x1="217.358" y1="-29.9091" x2="217.358" y2="118.091" gradientUnits="userSpaceOnUse">
<stop stop-color="#002B5E"/>
<stop offset="1" stop-color="#000B1A"/>
</linearGradient>
</defs>
</svg>
